<svg id="Emblem" xmlns="http://www.w3.org/2000/svg" width="126" height="157" viewBox="0 0 126 157">
  <defs>
    <style>
      .cls-1, .cls-3 {
        fill: none;
      }

      .cls-1, .cls-2, .cls-3 {
        stroke: #edafb8;
        fill-rule: evenodd;
      }

      .cls-1 {
        stroke-width: 3px;
      }

      .cls-2 {
        fill: #edafb8;
      }

      .cls-2, .cls-3 {
        stroke-linejoin: round;
        stroke-width: 2px;
      }
    </style>
  </defs>
  <path id="Rounded_Rectangle_4" data-name="Rounded Rectangle 4" class="cls-1" d="M63,5.447a58.548,58.548,0,0,1,58.548,58.548v29.01a58.548,58.548,0,1,1-117.1,0V63.995A58.548,58.548,0,0,1,63,5.447Z"/>
  <path class="cls-2" d="M63.015,35.025l0.106,0.187L31.9,52.827,31.8,52.64Z"/>
  <path class="cls-2" d="M63.264,35.025l-0.106.187,31.22,17.615,0.106-.187Z"/>
  <path class="cls-2" d="M63.264,70.371l-0.106-.187,31.22-17.615,0.106,0.187Z"/>
  <path class="cls-2" d="M63.015,70.371l0.106-.187L31.9,52.569l-0.105.187Z"/>
  <path class="cls-2" d="M63.193,96.292L63.087,96.1,94.307,78.49l0.106,0.187Z"/>
  <path class="cls-3" d="M63.015,96.292l0.106-.187L31.9,78.49l-0.105.187Z"/>
  <path class="cls-2" d="M63.212,120.4H63V35.047h0.215V120.4Z"/>
</svg>
